<svg width="20" height="20" viewBox="0 0 20 20" fill="none" xmlns="http://www.w3.org/2000/svg">
<path d="M9.17612 12.0733C9.92808 11.6628 10.5183 11.0228 10.8547 10.2533C11.191 9.48388 11.2545 8.62829 11.0352 7.82024C10.8158 7.0122 10.3261 6.2972 9.64242 5.78697C8.95875 5.27673 8.11968 5 7.25629 5C6.39291 5 5.55384 5.27673 4.87017 5.78697C4.18651 6.2972 3.69676 7.0122 3.47744 7.82024C3.25812 8.62829 3.32158 9.48388 3.65792 10.2533C3.99425 11.0228 4.58451 11.6628 5.33647 12.0733C4.01759 12.4757 2.872 13.2864 2.07613 14.3808C2.04499 14.4226 2.02271 14.4701 2.01058 14.5203C1.99846 14.5706 1.99673 14.6226 2.0055 14.6735C2.01427 14.7244 2.03335 14.7731 2.06166 14.8169C2.08997 14.8606 2.12694 14.8985 2.17044 14.9283C2.24045 14.9733 2.3222 14.9981 2.40621 15C2.47057 14.9997 2.53398 14.9849 2.59131 14.9566C2.64864 14.9283 2.6983 14.8873 2.73628 14.837C3.24536 14.1347 3.92169 13.5612 4.70811 13.165C5.49453 12.7689 6.36795 12.5617 7.25454 12.5611C8.14114 12.5605 9.01487 12.7663 9.80191 13.1613C10.5889 13.5564 11.2661 14.1289 11.7763 14.8305C11.8066 14.8731 11.8454 14.9095 11.8903 14.9375C11.9353 14.9655 11.9855 14.9846 12.0381 14.9937C12.0908 15.0028 12.1447 15.0017 12.1969 14.9905C12.2491 14.9793 12.2985 14.9581 12.3421 14.9283C12.4285 14.867 12.4868 14.7754 12.5044 14.6731C12.522 14.5708 12.4976 14.4659 12.4365 14.3808C11.6377 13.2892 10.4932 12.4791 9.17612 12.0733ZM4.15763 8.78157C4.15763 8.18854 4.33936 7.60883 4.67985 7.11574C5.02033 6.62266 5.50428 6.23834 6.07049 6.0114C6.63669 5.78446 7.25973 5.72508 7.86081 5.84077C8.4619 5.95647 9.01403 6.24204 9.44738 6.66137C9.88074 7.08071 10.1759 7.61497 10.2954 8.19661C10.415 8.77824 10.3536 9.38112 10.1191 9.92901C9.88456 10.4769 9.48739 10.9452 8.97782 11.2747C8.46825 11.6041 7.86915 11.78 7.25629 11.78C6.43448 11.78 5.64632 11.4641 5.06521 10.9018C4.48409 10.3394 4.15763 9.57679 4.15763 8.78157ZM17.8322 14.9283C17.7622 14.9733 17.6804 14.9981 17.5964 15C17.5312 15.0001 17.4671 14.9847 17.4095 14.9551C17.3519 14.9256 17.3028 14.8828 17.2663 14.8305C16.7562 14.1293 16.0792 13.5571 15.2925 13.1623C14.5058 12.7675 13.6325 12.5617 12.7463 12.5622C12.6391 12.5622 12.5363 12.521 12.4605 12.4476C12.3847 12.3743 12.3421 12.2748 12.3421 12.1711C12.3421 12.0673 12.3847 11.9679 12.4605 11.8945C12.5363 11.8212 12.6391 11.78 12.7463 11.78C13.5681 11.78 14.3563 11.4641 14.9374 10.9018C15.5185 10.3394 15.845 9.57679 15.845 8.78157C15.845 7.98634 15.5185 7.22368 14.9374 6.66137C14.3563 6.09906 13.5681 5.78316 12.7463 5.78316C12.4618 5.78432 12.1788 5.82157 11.9043 5.89397C11.8516 5.91397 11.7952 5.92305 11.7387 5.92062C11.6822 5.91819 11.6268 5.90431 11.5762 5.87988C11.5256 5.85544 11.4809 5.821 11.4449 5.77878C11.4089 5.73655 11.3824 5.68748 11.3673 5.63475C11.3521 5.58202 11.3485 5.52679 11.3568 5.47264C11.3651 5.41849 11.385 5.36663 11.4153 5.32041C11.4456 5.27419 11.4856 5.23464 11.5327 5.20431C11.5798 5.17399 11.633 5.15357 11.6887 5.14437C12.0324 5.04793 12.3885 4.99964 12.7463 5.00097C13.61 4.9999 14.4496 5.27577 15.1341 5.78543C15.8185 6.2951 16.3091 7.00984 16.5293 7.81793C16.7494 8.62603 16.6866 9.48192 16.3507 10.2518C16.0149 11.0217 15.4248 11.6623 14.6729 12.0733C15.9888 12.4778 17.1316 13.2883 17.9265 14.3808C17.9876 14.4659 18.012 14.5708 17.9944 14.6731C17.9768 14.7754 17.9186 14.867 17.8322 14.9283Z" fill="#1B1936"/>
</svg>
