<svg width="20" height="21" viewBox="0 0 20 21" fill="none" xmlns="http://www.w3.org/2000/svg">
<g clip-path="url(#clip0_1302_1150)">
<path d="M10 2.5C14.4184 2.5 18 6.0816 18 10.5C18 14.9184 14.4184 18.5 10 18.5C5.5816 18.5 2 14.9184 2 10.5C2 6.0816 5.5816 2.5 10 2.5ZM9.256 6.9648C9.1079 6.9648 8.96587 7.02363 8.86115 7.12835C8.75643 7.23307 8.6976 7.3751 8.6976 7.5232V11.988C8.6976 12.2968 8.9472 12.5464 9.256 12.5464H13.7208C13.7959 12.5492 13.8707 12.5369 13.9409 12.5102C14.0111 12.4834 14.0751 12.4427 14.1292 12.3907C14.1833 12.3386 14.2264 12.2761 14.2558 12.207C14.2852 12.1378 14.3003 12.0635 14.3003 11.9884C14.3003 11.9133 14.2852 11.839 14.2558 11.7698C14.2264 11.7007 14.1833 11.6382 14.1292 11.5862C14.0751 11.5341 14.0111 11.4934 13.9409 11.4666C13.8707 11.4399 13.7959 11.4276 13.7208 11.4304H9.8136V7.5232C9.8136 7.37524 9.75488 7.23333 9.65033 7.12863C9.54578 7.02394 9.40396 6.96501 9.256 6.9648Z" fill="#1B1936"/>
</g>
<defs>
<clipPath id="clip0_1302_1150">
<rect width="16" height="16" fill="white" transform="translate(2 2.5)"/>
</clipPath>
</defs>
</svg>
