<svg width="108" height="61" viewBox="0 0 108 61" fill="none" xmlns="http://www.w3.org/2000/svg">
<path d="M99.1111 36.6292C99.2296 36.7459 96.4444 39.1101 96.4444 39.1101L62.963 11.2368L37.4815 31.2297L30.8148 24.6627L62.963 0L108 35.4617V41.7368L62.963 4.66986L36.7407 24.6627L38.2222 25.9761L62.963 6.85885L99.1111 36.6292Z" fill="#EB8628"/>
<path d="M56.9784 56.3759C56.9784 55.6582 57.1988 55.0791 57.6397 54.6388C58.0806 54.1984 58.6378 53.9783 59.3114 53.9783C59.9421 53.9783 60.4351 54.1834 60.7902 54.5935C61.1454 54.9977 61.323 55.5074 61.323 56.1226C61.323 56.201 61.3107 56.3247 61.2862 56.4936H57.9061C57.9306 56.9701 58.0928 57.3441 58.3929 57.6155C58.6991 57.8809 59.0695 58.0136 59.5043 58.0136C60.0125 58.0136 60.4687 57.8357 60.8729 57.4798L61.2495 58.1222C61.029 58.3212 60.7535 58.4811 60.4228 58.6017C60.0983 58.7163 59.7737 58.7736 59.4492 58.7736C58.7266 58.7736 58.1326 58.5474 57.6673 58.095C57.208 57.6366 56.9784 57.0636 56.9784 56.3759ZM57.9336 55.8602H60.4228C60.4106 55.4802 60.2973 55.1846 60.083 54.9735C59.8748 54.7624 59.6115 54.6569 59.293 54.6569C58.944 54.6569 58.644 54.7654 58.3929 54.9826C58.148 55.1937 57.9949 55.4862 57.9336 55.8602Z" fill="#EB8628"/>
<path d="M61.9994 58.1041L62.4219 57.5069C62.7954 57.8628 63.2516 58.0408 63.7905 58.0408C64.0293 58.0408 64.2191 57.9895 64.36 57.8869C64.5069 57.7784 64.5804 57.6306 64.5804 57.4436C64.5804 57.2868 64.4977 57.151 64.3324 57.0364C64.1671 56.9218 63.9681 56.8223 63.7354 56.7379C63.5027 56.6534 63.27 56.5599 63.0373 56.4574C62.8046 56.3548 62.6056 56.2071 62.4403 56.014C62.2749 55.815 62.1923 55.5767 62.1923 55.2993C62.1923 54.8831 62.3515 54.5603 62.6699 54.3311C62.9883 54.0959 63.3863 53.9783 63.864 53.9783C64.4886 53.9783 64.9907 54.1472 65.3703 54.485L65.0121 55.1183C64.8774 54.9916 64.6998 54.8921 64.4794 54.8197C64.265 54.7473 64.0507 54.7111 63.8364 54.7111C63.5976 54.7111 63.4047 54.7594 63.2577 54.8559C63.1169 54.9524 63.0465 55.0942 63.0465 55.2812C63.0465 55.444 63.1291 55.5828 63.2945 55.6974C63.4598 55.812 63.6588 55.9115 63.8915 55.9959C64.1242 56.0744 64.3569 56.1648 64.5896 56.2674C64.8284 56.3699 65.0305 56.5207 65.1958 56.7198C65.3611 56.9128 65.4438 57.148 65.4438 57.4255C65.4438 57.8176 65.2877 58.1403 64.9754 58.3936C64.6631 58.647 64.262 58.7736 63.7721 58.7736C63.0373 58.7736 62.4464 58.5505 61.9994 58.1041Z" fill="#EB8628"/>
<path d="M66.1994 56.3759C66.1994 55.6943 66.4321 55.1243 66.8975 54.6659C67.369 54.2075 67.9661 53.9783 68.6886 53.9783C69.4234 53.9783 70.0052 54.2015 70.4338 54.6478L70.0113 55.2631C69.6561 54.9132 69.2275 54.7383 68.7254 54.7383C68.26 54.7383 67.8742 54.8951 67.568 55.2088C67.2619 55.5164 67.1088 55.9024 67.1088 56.3669C67.1088 56.8374 67.2619 57.2295 67.568 57.5431C67.8803 57.8568 68.2753 58.0136 68.7529 58.0136C69.0101 58.0136 69.2673 57.9593 69.5245 57.8507C69.7878 57.7361 70.0082 57.5853 70.1858 57.3984L70.544 58.0408C70.3297 58.2639 70.0572 58.4419 69.7266 58.5746C69.3959 58.7073 69.0499 58.7736 68.6886 58.7736C67.9599 58.7736 67.3629 58.5474 66.8975 58.095C66.4321 57.6426 66.1994 57.0696 66.1994 56.3759Z" fill="#EB8628"/>
<path d="M71.122 57.4165C71.122 57.0787 71.2169 56.7952 71.4067 56.566C71.5965 56.3367 71.8476 56.1739 72.1599 56.0774C72.4783 55.9748 72.7722 55.9055 73.0417 55.8693C73.3111 55.8331 73.5959 55.815 73.8959 55.815H74.1347V55.7245C74.1347 55.055 73.7949 54.7202 73.1152 54.7202C72.6682 54.7202 72.2334 54.868 71.8109 55.1635L71.4526 54.5211C71.6425 54.3643 71.8997 54.2346 72.2242 54.1321C72.5487 54.0295 72.8702 53.9783 73.1886 53.9783C73.7765 53.9783 74.2296 54.1321 74.5481 54.4397C74.8665 54.7473 75.0257 55.1907 75.0257 55.7697V58.6651H74.1898V58.2036L74.2174 57.8417H74.199C74.0582 58.1131 73.85 58.3363 73.5744 58.5112C73.305 58.6862 73.0049 58.7736 72.6743 58.7736C72.2518 58.7736 71.8874 58.65 71.5812 58.4027C71.2751 58.1554 71.122 57.8266 71.122 57.4165ZM72.0129 57.3441C72.0129 57.5431 72.0895 57.715 72.2426 57.8598C72.3957 58.0046 72.61 58.0769 72.8855 58.0769C73.2529 58.0769 73.553 57.9261 73.7857 57.6246C74.0184 57.323 74.1347 56.9882 74.1347 56.6202V56.4483H73.9051C72.6437 56.4483 72.0129 56.7469 72.0129 57.3441Z" fill="#EB8628"/>
<path d="M76.3515 60.4746V54.0868H77.1782V54.494L77.1506 54.8378H77.169C77.316 54.5664 77.5272 54.3553 77.8028 54.2045C78.0783 54.0537 78.3876 53.9783 78.7305 53.9783C79.3551 53.9783 79.8511 54.1984 80.2185 54.6388C80.5859 55.0791 80.7696 55.6582 80.7696 56.3759C80.7696 57.0998 80.5736 57.6819 80.1817 58.1222C79.7898 58.5565 79.2846 58.7736 78.6662 58.7736C78.0477 58.7736 77.567 58.5143 77.2241 57.9955H77.2057C77.2302 58.1041 77.2425 58.2368 77.2425 58.3936V60.4746H76.3515ZM77.2149 56.394C77.2149 56.8283 77.3313 57.2084 77.564 57.5341C77.8028 57.8538 78.1243 58.0136 78.5284 58.0136C78.9081 58.0136 79.2265 57.8688 79.4837 57.5793C79.7408 57.2838 79.8694 56.8856 79.8694 56.385C79.8694 55.8904 79.747 55.4953 79.502 55.1997C79.2632 54.8981 78.9479 54.7473 78.556 54.7473C78.1763 54.7473 77.8579 54.8861 77.6007 55.1635C77.3435 55.441 77.2149 55.8512 77.2149 56.394Z" fill="#EB8628"/>
<path d="M81.5649 56.3759C81.5649 55.6582 81.7853 55.0791 82.2262 54.6388C82.6671 54.1984 83.2243 53.9783 83.8979 53.9783C84.5286 53.9783 85.0216 54.1834 85.3767 54.5935C85.7319 54.9977 85.9095 55.5074 85.9095 56.1226C85.9095 56.201 85.8972 56.3247 85.8727 56.4936H82.4926C82.5171 56.9701 82.6794 57.3441 82.9794 57.6155C83.2856 57.8809 83.6561 58.0136 84.0908 58.0136C84.5991 58.0136 85.0553 57.8357 85.4594 57.4798L85.836 58.1222C85.6156 58.3212 85.34 58.4811 85.0093 58.6017C84.6848 58.7163 84.3602 58.7736 84.0357 58.7736C83.3131 58.7736 82.7192 58.5474 82.2538 58.095C81.7945 57.6366 81.5649 57.0636 81.5649 56.3759ZM82.5202 55.8602H85.0093C84.9971 55.4802 84.8838 55.1846 84.6695 54.9735C84.4613 54.7624 84.198 54.6569 83.8796 54.6569C83.5305 54.6569 83.2305 54.7654 82.9794 54.9826C82.7345 55.1937 82.5814 55.4862 82.5202 55.8602Z" fill="#EB8628"/>
<path d="M2.03912 50.201V34.9527H14.2299V50.201H12.0593V36.8102H4.20979V50.201H2.03912Z" fill="#1B1936"/>
<path d="M17.3475 42.4689C17.3475 40.2802 18.1149 38.4372 19.6498 36.9397C21.1846 35.4423 23.0702 34.6935 25.3066 34.6935C27.5431 34.6935 29.4214 35.4423 30.9416 36.9397C32.4764 38.4372 33.2438 40.2802 33.2438 42.4689C33.2438 44.7151 32.4764 46.6085 30.9416 48.1492C29.4214 49.6898 27.5431 50.4601 25.3066 50.4601C23.0702 50.4601 21.1846 49.6898 19.6498 48.1492C18.1149 46.6085 17.3475 44.7151 17.3475 42.4689ZM19.584 42.4689C19.584 44.1679 20.1394 45.6006 21.2503 46.7669C22.3613 47.9188 23.7134 48.4947 25.3066 48.4947C26.8999 48.4947 28.2447 47.9188 29.341 46.7669C30.4519 45.6006 31.0074 44.1679 31.0074 42.4689C31.0074 40.8274 30.4519 39.4451 29.341 38.322C28.2447 37.1989 26.8999 36.6374 25.3066 36.6374C23.7134 36.6374 22.3613 37.1989 21.2503 38.322C20.1394 39.4451 19.584 40.8274 19.584 42.4689Z" fill="#1B1936"/>
<path d="M36.3626 50.201V34.9527H45.5057V36.8102H38.5333V41.065H41.9318C43.3204 41.065 44.4533 41.4753 45.3303 42.2961C46.2074 43.1024 46.6459 44.2255 46.6459 45.6654C46.6459 47.0189 46.2147 48.1132 45.3522 48.9483C44.5044 49.7834 43.4008 50.201 42.0414 50.201H36.3626ZM38.5333 48.3435H41.6906C42.553 48.3435 43.2254 48.106 43.7078 47.6308C44.2048 47.1556 44.4533 46.5005 44.4533 45.6654C44.4533 44.8302 44.1975 44.1679 43.6859 43.6783C43.1889 43.1744 42.5092 42.9224 41.6468 42.9224H38.5333V48.3435Z" fill="#1B1936"/>
<path d="M49.6381 50.201V34.9527H58.6496V36.8102H51.8088V41.5833H57.356V43.4408H51.8088V48.3435H59.0224V50.201H49.6381Z" fill="#1B1936"/>
<path d="M62.0142 50.201V34.9527H70.5434V36.8102H64.1849V50.201H62.0142Z" fill="#1B1936"/>
<path d="M72.8701 50.201V34.9527H75.0408V44.8446L74.9093 47.0692H74.9531C75.4647 46.1189 75.9032 45.3702 76.2687 44.823L83.1315 34.9527H85.2583V50.201H83.1096V40.309L83.2411 38.0844H83.1973C82.7003 39.006 82.2691 39.7475 81.9036 40.309L74.997 50.201H72.8701Z" fill="#1B1936"/>
</svg>
