<svg width="24" height="24" viewBox="0 0 24 24" fill="none" xmlns="http://www.w3.org/2000/svg">
<path d="M11.1761 14.0733C11.9281 13.6628 12.5183 13.0228 12.8547 12.2533C13.191 11.4839 13.2545 10.6283 13.0352 9.82024C12.8158 9.0122 12.3261 8.2972 11.6424 7.78697C10.9588 7.27673 10.1197 7 9.25629 7C8.39291 7 7.55384 7.27673 6.87017 7.78697C6.18651 8.2972 5.69676 9.0122 5.47744 9.82024C5.25812 10.6283 5.32158 11.4839 5.65792 12.2533C5.99425 13.0228 6.58451 13.6628 7.33647 14.0733C6.01759 14.4757 4.872 15.2864 4.07613 16.3808C4.04499 16.4226 4.02271 16.4701 4.01058 16.5203C3.99846 16.5706 3.99673 16.6226 4.0055 16.6735C4.01427 16.7244 4.03335 16.7731 4.06166 16.8169C4.08997 16.8606 4.12694 16.8985 4.17044 16.9283C4.24045 16.9733 4.3222 16.9981 4.40621 17C4.47057 16.9997 4.53398 16.9849 4.59131 16.9566C4.64864 16.9283 4.6983 16.8873 4.73628 16.837C5.24536 16.1347 5.92169 15.5612 6.70811 15.165C7.49453 14.7689 8.36795 14.5617 9.25454 14.5611C10.1411 14.5605 11.0149 14.7663 11.8019 15.1613C12.5889 15.5564 13.2661 16.1289 13.7763 16.8305C13.8066 16.8731 13.8454 16.9095 13.8903 16.9375C13.9353 16.9655 13.9855 16.9846 14.0381 16.9937C14.0908 17.0028 14.1447 17.0017 14.1969 16.9905C14.2491 16.9793 14.2985 16.9581 14.3421 16.9283C14.4285 16.867 14.4868 16.7754 14.5044 16.6731C14.522 16.5708 14.4976 16.4659 14.4365 16.3808C13.6377 15.2892 12.4932 14.4791 11.1761 14.0733ZM6.15763 10.7816C6.15763 10.1885 6.33936 9.60883 6.67985 9.11574C7.02033 8.62266 7.50428 8.23834 8.07049 8.0114C8.63669 7.78446 9.25973 7.72508 9.86081 7.84077C10.4619 7.95647 11.014 8.24204 11.4474 8.66137C11.8807 9.08071 12.1759 9.61497 12.2954 10.1966C12.415 10.7782 12.3536 11.3811 12.1191 11.929C11.8846 12.4769 11.4874 12.9452 10.9778 13.2747C10.4682 13.6041 9.86915 13.78 9.25629 13.78C8.43448 13.78 7.64632 13.4641 7.06521 12.9018C6.48409 12.3394 6.15763 11.5768 6.15763 10.7816ZM19.8322 16.9283C19.7622 16.9733 19.6804 16.9981 19.5964 17C19.5312 17.0001 19.4671 16.9847 19.4095 16.9551C19.3519 16.9256 19.3028 16.8828 19.2663 16.8305C18.7562 16.1293 18.0792 15.5571 17.2925 15.1623C16.5058 14.7675 15.6325 14.5617 14.7463 14.5622C14.6391 14.5622 14.5363 14.521 14.4605 14.4476C14.3847 14.3743 14.3421 14.2748 14.3421 14.1711C14.3421 14.0673 14.3847 13.9679 14.4605 13.8945C14.5363 13.8212 14.6391 13.78 14.7463 13.78C15.5681 13.78 16.3563 13.4641 16.9374 12.9018C17.5185 12.3394 17.845 11.5768 17.845 10.7816C17.845 9.98634 17.5185 9.22368 16.9374 8.66137C16.3563 8.09906 15.5681 7.78316 14.7463 7.78316C14.4618 7.78432 14.1788 7.82157 13.9043 7.89397C13.8516 7.91397 13.7952 7.92305 13.7387 7.92062C13.6822 7.91819 13.6268 7.90431 13.5762 7.87988C13.5256 7.85544 13.4809 7.821 13.4449 7.77878C13.4089 7.73655 13.3824 7.68748 13.3673 7.63475C13.3521 7.58202 13.3485 7.52679 13.3568 7.47264C13.3651 7.41849 13.385 7.36663 13.4153 7.32041C13.4456 7.27419 13.4856 7.23464 13.5327 7.20431C13.5798 7.17399 13.633 7.15357 13.6887 7.14437C14.0324 7.04793 14.3885 6.99964 14.7463 7.00097C15.61 6.9999 16.4496 7.27577 17.1341 7.78543C17.8185 8.2951 18.3091 9.00984 18.5293 9.81793C18.7494 10.626 18.6866 11.4819 18.3507 12.2518C18.0149 13.0217 17.4248 13.6623 16.6729 14.0733C17.9888 14.4778 19.1316 15.2883 19.9265 16.3808C19.9876 16.4659 20.012 16.5708 19.9944 16.6731C19.9768 16.7754 19.9186 16.867 19.8322 16.9283Z" fill="#1B1936"/>
</svg>
