<svg width="32" height="33" viewBox="0 0 32 33" fill="none" xmlns="http://www.w3.org/2000/svg">
<g clip-path="url(#clip0_809_2548)">
<path d="M20.911 0.5H11.088C2.12402 0.5 -0.000976562 2.625 -0.000976562 11.589V21.412C-0.000976562 30.376 2.12402 32.501 11.088 32.501H20.911C29.875 32.501 32 30.376 32 21.412V11.589C32 2.625 29.854 0.5 20.911 0.5ZM25.833 23.328H23.51C22.63 23.328 22.359 22.63 20.776 21.026C19.401 19.693 18.792 19.516 18.453 19.516C17.974 19.516 17.838 19.651 17.838 20.308V22.407C17.838 22.97 17.661 23.308 16.171 23.308C13.707 23.308 10.973 21.818 9.05602 19.042C6.16502 14.974 5.37402 11.927 5.37402 11.297C5.37402 10.958 5.50902 10.641 6.16002 10.641H8.48802C9.07702 10.641 9.30102 10.912 9.53002 11.542C10.681 14.865 12.598 17.776 13.389 17.776C13.681 17.776 13.816 17.641 13.816 16.896V13.464C13.727 11.881 12.894 11.745 12.894 11.183C12.894 10.912 13.118 10.641 13.477 10.641H17.138C17.633 10.641 17.815 10.912 17.815 11.495V16.125C17.815 16.625 18.039 16.802 18.174 16.802C18.466 16.802 18.716 16.625 19.257 16.083C20.929 14.208 22.127 11.317 22.127 11.317C22.283 10.978 22.554 10.661 23.143 10.661H25.471C26.169 10.661 26.325 11.02 26.169 11.52C25.877 12.874 23.028 16.895 23.028 16.895C22.783 17.301 22.689 17.478 23.028 17.931C23.278 18.27 24.091 18.973 24.632 19.603C25.627 20.733 26.392 21.681 26.596 22.337C26.825 22.988 26.487 23.327 25.83 23.327L25.833 23.328Z" fill="#1B1936"/>
</g>
<defs>
<clipPath id="clip0_809_2548">
<rect width="32" height="32" fill="white" transform="translate(0 0.5)"/>
</clipPath>
</defs>
</svg>
