<svg width="9" height="8" viewBox="0 0 9 8" fill="none" xmlns="http://www.w3.org/2000/svg">
<path d="M3.17333 7.01979C3.10111 7.01979 3.0334 7.00841 2.9702 6.98566C2.90701 6.96327 2.84833 6.92499 2.79416 6.87083L0.464996 4.54166C0.36569 4.44235 0.318204 4.31362 0.322537 4.15545C0.327232 3.99765 0.379232 3.86909 0.478537 3.76978C0.577843 3.67048 0.704232 3.62083 0.857704 3.62083C1.01118 3.62083 1.13757 3.67048 1.23687 3.76978L3.17333 5.70624L7.76395 1.11562C7.86326 1.01631 7.992 0.96666 8.15016 0.96666C8.30797 0.96666 8.43652 1.01631 8.53583 1.11562C8.63514 1.21492 8.68479 1.34348 8.68479 1.50128C8.68479 1.65945 8.63514 1.78819 8.53583 1.88749L3.5525 6.87083C3.49833 6.92499 3.43965 6.96327 3.37645 6.98566C3.31326 7.00841 3.24555 7.01979 3.17333 7.01979Z" fill="white"/>
</svg>
